<?xml version="1.0" encoding="UTF-8" ?>
<!DOCTYPE svg PUBLIC "-//W3C//DTD SVG 1.1//EN" "http://www.w3.org/Graphics/SVG/1.1/DTD/svg11.dtd">
<svg width="2222pt" height="574pt" viewBox="0 0 2222 574" version="1.1" xmlns="http://www.w3.org/2000/svg">
<g id="#ffffffff">
<path fill="#ffffff" opacity="1.00" d=" M 284.31 0.00 L 288.69 0.00 C 326.49 0.34 364.27 7.98 398.97 23.02 C 421.83 32.87 443.45 45.64 463.02 61.01 C 476.28 71.83 478.33 93.31 467.37 106.45 C 457.15 120.10 435.92 122.89 422.33 112.73 C 398.77 94.42 371.61 80.67 342.70 73.19 C 299.64 61.95 253.20 63.97 211.35 79.11 C 166.51 95.23 127.43 126.51 101.42 166.38 C 79.50 199.71 67.19 239.18 65.82 279.01 C 64.41 318.06 73.53 357.47 92.18 391.82 C 116.06 435.84 155.21 471.45 201.49 490.67 C 238.00 505.97 278.68 510.95 317.85 505.40 C 355.45 500.11 391.51 484.67 421.52 461.43 C 428.68 455.90 438.20 453.57 447.11 455.21 C 461.12 457.60 472.84 469.90 474.37 484.07 C 475.69 494.51 471.60 505.57 463.52 512.39 C 411.55 554.01 344.41 575.49 278.00 573.71 C 240.81 572.18 203.76 564.27 169.76 548.98 C 114.96 524.62 68.30 482.52 38.29 430.62 C 15.51 391.48 2.47 346.83 0.00 301.64 L 0.00 271.35 C 1.76 240.92 8.15 210.73 19.24 182.32 C 41.28 125.46 82.33 76.36 133.85 43.86 C 178.56 15.44 231.39 0.38 284.31 0.00 Z" />
<path fill="#ffffff" opacity="1.00" d=" M 600.54 91.71 C 611.18 89.37 622.91 92.60 630.72 100.23 C 635.85 105.15 638.54 111.88 641.60 118.14 C 677.71 193.69 688.37 280.95 672.12 363.05 C 665.06 398.91 653.00 433.80 636.23 466.28 C 629.52 478.66 614.22 485.36 600.54 482.21 C 591.46 480.24 583.27 474.30 578.79 466.14 C 574.29 458.28 573.52 448.57 576.14 439.96 C 577.38 435.68 579.77 431.87 581.65 427.86 C 625.08 338.19 624.03 228.28 578.56 139.59 C 575.06 132.62 573.75 124.47 575.50 116.83 C 577.99 104.52 588.28 94.30 600.54 91.71 Z" />
<path fill="#ffffff" opacity="1.00" d=" M 200.49 126.32 C 254.23 97.69 322.57 98.24 375.53 128.46 C 381.63 132.14 388.33 135.49 392.47 141.53 C 401.42 153.78 400.74 172.15 390.33 183.34 C 379.66 195.46 359.76 198.13 346.56 188.63 C 323.01 174.08 294.06 168.65 266.82 173.48 C 238.10 178.41 211.57 194.80 194.29 218.26 C 177.33 240.90 169.20 269.95 172.15 298.10 C 174.53 322.58 185.16 346.12 201.79 364.23 C 219.72 383.97 244.65 397.32 271.13 400.81 C 297.44 404.42 325.01 398.64 347.45 384.38 C 370.80 369.65 388.87 346.50 396.78 319.99 C 370.53 320.26 344.28 320.21 318.03 320.10 C 300.19 319.83 285.05 302.81 286.58 285.08 C 287.09 268.62 301.56 254.17 318.04 253.79 C 357.03 253.58 396.02 253.70 435.01 253.66 C 448.13 253.35 460.79 261.98 465.61 274.13 C 469.12 282.30 467.99 291.41 467.61 300.04 C 464.96 339.50 448.60 377.80 422.31 407.30 C 400.37 432.09 371.51 450.66 339.86 460.38 C 296.19 473.92 247.41 470.05 206.46 449.69 C 175.76 434.61 149.60 410.58 131.73 381.44 C 114.69 353.80 105.44 321.46 105.16 289.00 C 104.71 255.45 113.35 221.69 130.62 192.86 C 147.31 164.90 171.66 141.51 200.49 126.32 Z" />
<path fill="#ffffff" opacity="1.00" d=" M 509.57 148.76 C 524.25 145.06 541.00 152.97 547.09 166.91 C 580.67 239.19 581.90 325.67 550.55 398.92 C 547.72 405.27 545.29 412.14 539.95 416.89 C 531.33 425.02 518.21 428.28 506.91 424.45 C 493.22 420.27 483.37 406.27 484.03 391.98 C 484.04 387.05 485.63 382.31 487.61 377.86 C 513.87 320.65 513.71 252.01 487.22 194.91 C 484.73 189.27 483.58 182.97 484.41 176.83 C 485.86 163.46 496.46 151.70 509.57 148.76 Z" />
<path fill="#ffffff" opacity="1.00" d=" M 889.08 156.75 C 926.41 156.75 963.73 156.74 1001.06 156.76 C 1032.33 158.36 1064.03 168.25 1088.02 188.93 C 1108.58 206.36 1122.27 231.33 1126.79 257.82 C 1129.07 269.21 1129.03 280.88 1128.68 292.44 C 1127.84 316.88 1119.66 341.16 1104.95 360.74 C 1091.47 378.75 1072.48 392.27 1051.59 400.37 C 1033.58 407.35 1014.25 410.76 994.96 411.05 C 959.67 411.05 924.38 411.10 889.08 411.08 C 889.08 326.31 889.08 241.53 889.08 156.75 M 951.65 211.08 C 951.68 259.41 951.65 307.75 951.67 356.08 C 963.76 356.09 975.85 356.08 987.95 356.08 C 1009.83 356.61 1032.60 349.05 1047.87 332.95 C 1069.87 308.59 1071.64 269.37 1053.79 242.20 C 1043.80 227.38 1027.43 217.62 1010.14 213.83 C 990.94 209.56 971.15 211.43 951.65 211.08 Z" />
<path fill="#ffffff" opacity="1.00" d=" M 1885.67 163.75 C 1906.28 163.74 1926.88 163.75 1947.49 163.75 C 1947.51 182.50 1947.49 201.25 1947.50 220.00 C 1966.25 220.01 1985.00 219.99 2003.75 220.01 C 2003.74 236.23 2003.76 252.45 2003.74 268.67 C 1985.00 268.66 1966.25 268.67 1947.51 268.67 C 1947.49 290.77 1947.51 312.87 1947.50 334.97 C 1947.49 342.30 1949.37 350.06 1954.40 355.62 C 1959.19 359.87 1965.70 361.98 1972.08 361.76 C 1982.15 361.83 1991.99 358.62 2000.73 353.75 C 2005.22 370.14 2010.35 386.35 2014.95 402.72 C 2004.58 408.27 1993.54 412.72 1981.98 415.02 C 1972.77 416.96 1963.29 416.85 1953.94 416.47 C 1937.35 415.49 1920.31 410.50 1907.77 399.18 C 1895.95 388.74 1889.44 373.45 1887.17 358.08 C 1884.77 343.15 1885.86 328.00 1885.67 312.96 C 1885.78 298.20 1885.42 283.43 1885.67 268.66 C 1874.30 268.66 1862.94 268.68 1851.58 268.65 C 1851.59 252.44 1851.57 236.22 1851.59 220.00 C 1862.95 219.99 1874.31 220.02 1885.67 219.99 C 1885.50 201.24 1885.63 182.50 1885.67 163.75 Z" />
<path fill="#ffffff" opacity="1.00" d=" M 1454.43 236.70 C 1478.96 212.36 1519.65 206.88 1550.08 222.90 C 1565.86 231.62 1577.73 246.89 1582.75 264.17 C 1586.33 275.05 1587.06 286.61 1587.15 297.99 C 1587.00 335.69 1587.12 373.38 1587.08 411.08 C 1566.69 411.08 1546.31 411.08 1525.92 411.08 C 1525.93 376.39 1525.90 341.69 1525.90 307.00 C 1525.81 299.96 1524.63 292.78 1521.32 286.50 C 1517.40 279.08 1510.67 272.98 1502.52 270.68 C 1490.66 267.47 1477.00 270.31 1468.06 278.93 C 1456.51 290.70 1454.01 308.21 1454.42 324.02 C 1454.41 353.04 1454.42 382.06 1454.41 411.08 C 1433.80 411.08 1413.19 411.08 1392.59 411.08 C 1392.59 347.13 1392.57 283.19 1392.59 219.24 C 1413.20 219.27 1433.81 219.23 1454.43 219.26 C 1454.41 225.08 1454.40 230.89 1454.43 236.70 Z" />
<path fill="#ffffff" opacity="1.00" d=" M 1692.07 215.58 C 1698.98 214.26 1706.04 214.39 1713.05 214.33 C 1732.73 214.44 1752.52 221.17 1767.59 233.96 C 1767.57 229.31 1767.58 224.65 1767.59 220.00 C 1788.23 220.01 1808.87 219.98 1829.51 220.02 C 1829.42 283.70 1829.65 347.39 1829.40 411.08 C 1808.79 411.08 1788.19 411.08 1767.59 411.08 C 1767.58 406.28 1767.57 401.48 1767.59 396.68 C 1754.36 408.17 1737.26 414.64 1719.92 416.21 C 1697.10 418.96 1673.40 412.70 1654.80 399.24 C 1642.92 390.79 1633.55 379.13 1627.03 366.15 C 1615.44 343.12 1612.58 316.08 1617.96 290.96 C 1621.31 275.66 1627.48 260.73 1637.38 248.48 C 1650.95 231.53 1670.61 219.33 1692.07 215.58 M 1714.63 266.79 C 1699.41 268.43 1685.84 278.96 1680.18 293.13 C 1673.32 310.11 1674.42 330.80 1684.75 346.18 C 1692.65 358.01 1706.94 364.59 1720.98 364.54 C 1734.68 364.80 1748.18 358.34 1756.73 347.65 C 1771.19 329.60 1771.41 301.44 1756.72 283.45 C 1746.89 271.05 1730.31 264.25 1714.63 266.79 Z" />
<path fill="#ffffff" opacity="1.00" d=" M 2070.87 226.94 C 2091.77 215.32 2116.67 211.68 2140.18 215.51 C 2156.20 217.95 2171.54 224.64 2184.20 234.78 C 2204.07 250.24 2216.15 274.16 2219.55 298.86 C 2220.65 309.59 2221.61 320.37 2221.50 331.16 C 2174.73 331.26 2127.97 331.00 2081.21 331.30 C 2083.26 339.45 2086.71 347.40 2092.21 353.84 C 2098.83 361.67 2108.65 366.94 2118.99 367.25 C 2126.43 367.49 2134.15 367.20 2141.14 364.34 C 2150.04 360.84 2157.62 354.04 2161.91 345.47 C 2180.46 348.56 2198.72 353.21 2217.27 356.35 C 2211.66 369.15 2204.38 381.47 2194.10 391.08 C 2178.92 405.49 2158.55 413.63 2137.92 415.96 C 2119.26 417.80 2099.89 416.76 2082.41 409.48 C 2064.56 402.36 2048.69 390.04 2037.99 374.02 C 2027.04 358.23 2021.59 339.05 2020.93 319.96 C 2020.33 301.98 2023.31 283.58 2031.69 267.52 C 2040.33 250.49 2054.15 236.15 2070.87 226.94 M 2102.15 269.15 C 2092.58 274.21 2085.64 283.38 2082.25 293.56 C 2108.21 293.61 2134.18 293.58 2160.15 293.58 C 2157.47 285.54 2153.31 277.69 2146.54 272.37 C 2134.29 262.15 2115.88 261.68 2102.15 269.15 Z" />
<path fill="#ffffff" opacity="1.00" d=" M 1241.59 215.87 C 1262.29 213.41 1283.85 215.53 1303.02 224.03 C 1320.80 231.77 1336.48 244.65 1346.82 261.13 C 1367.44 293.77 1367.30 338.06 1346.76 370.69 C 1336.84 386.56 1321.81 398.93 1304.85 406.68 C 1283.80 416.29 1259.83 418.92 1237.07 415.08 C 1221.55 412.40 1206.35 406.86 1193.44 397.73 C 1178.90 387.58 1166.80 373.62 1159.89 357.21 C 1148.02 329.39 1148.82 296.39 1162.23 269.27 C 1177.28 239.44 1208.64 219.39 1241.59 215.87 M 1250.57 266.73 C 1241.13 268.23 1232.12 272.59 1225.35 279.35 C 1205.99 297.95 1205.68 332.49 1224.55 351.52 C 1236.42 363.90 1255.62 368.56 1271.82 362.85 C 1282.33 359.12 1291.31 351.42 1296.61 341.60 C 1306.28 324.53 1305.03 302.10 1294.10 285.91 C 1284.71 271.99 1267.24 263.99 1250.57 266.73 Z" />
</g>
</svg>
